<?xml version="1.0" standalone="no"?>
<!DOCTYPE svg PUBLIC "-//W3C//DTD SVG 20010904//EN"
 "http://www.w3.org/TR/2001/REC-SVG-20010904/DTD/svg10.dtd">
<svg version="1.0" xmlns="http://www.w3.org/2000/svg"
 width="697.000000pt" height="181.000000pt" viewBox="0 0 697.000000 181.000000"
 preserveAspectRatio="xMidYMid meet">
<metadata>
Created by potrace 1.13, written by Peter Selinger 2001-2015
</metadata>
<g transform="translate(0.000000,181.000000) scale(0.100000,-0.100000)"
fill="#000000" stroke="none">
<path d="M1297 1803 c-929 -2 -1297 -6 -1297 -14 0 -6 109 -207 242 -447 133
-240 241 -441 241 -447 0 -7 -109 -209 -242 -450 -133 -241 -240 -440 -237
-442 2 -2 29 40 59 94 157 282 428 775 433 788 3 7 -103 209 -235 448 -133
239 -241 440 -241 446 0 8 255 11 953 11 525 0 1973 3 3218 7 l2264 6 243
-440 c133 -241 242 -445 242 -453 0 -11 -438 -815 -480 -880 -8 -13 -311 -16
-2592 -20 l-2583 -6 2589 1 2588 0 250 452 250 453 -249 450 -248 450 -1935
-2 c-1064 -2 -2519 -4 -3233 -5z"/>
</g>
</svg>
