<?xml version="1.0" standalone="no"?>
<!DOCTYPE svg PUBLIC "-//W3C//DTD SVG 20010904//EN"
 "http://www.w3.org/TR/2001/REC-SVG-20010904/DTD/svg10.dtd">
<svg version="1.0" xmlns="http://www.w3.org/2000/svg"
 width="698.000000pt" height="180.000000pt" viewBox="0 0 698.000000 180.000000"
 preserveAspectRatio="xMidYMid meet">
<metadata>
Created by potrace 1.13, written by Peter Selinger 2001-2015
</metadata>
<g transform="translate(0.000000,180.000000) scale(0.100000,-0.100000)"
fill="#000000" stroke="none">
<path d="M0 1794 c0 -3 109 -202 242 -442 133 -240 241 -441 241 -447 0 -7
-108 -209 -241 -449 -133 -241 -242 -442 -242 -447 0 -11 6450 -1 6462 10 3 3
117 207 253 453 l247 448 -243 440 c-133 242 -246 440 -250 440 -4 0 45 -96
110 -212 313 -567 361 -655 361 -668 0 -8 -109 -210 -241 -451 l-241 -437
-582 -6 c-319 -3 -1770 -8 -3224 -10 l-2642 -4 29 52 c73 130 453 819 457 831
3 8 -103 209 -235 448 -133 239 -241 440 -241 446 0 6 -4 11 -10 11 -5 0 -10
-3 -10 -6z"/>
</g>
</svg>
