<?xml version="1.0" standalone="no"?>
<!DOCTYPE svg PUBLIC "-//W3C//DTD SVG 20010904//EN"
 "http://www.w3.org/TR/2001/REC-SVG-20010904/DTD/svg10.dtd">
<svg version="1.0" xmlns="http://www.w3.org/2000/svg"
 width="720.000000pt" height="185.000000pt" viewBox="0 0 720.000000 185.000000"
 preserveAspectRatio="xMidYMid meet">
<metadata>
Created by potrace 1.13, written by Peter Selinger 2001-2015
</metadata>
<g transform="translate(0.000000,185.000000) scale(0.100000,-0.100000)"
fill="#000000" stroke="none">
<path d="M4095 1840 c-1067 -4 -2425 -8 -3017 -9 -774 -1 -1078 -4 -1078 -12
0 -6 109 -207 242 -447 133 -240 241 -441 241 -447 0 -7 -108 -209 -241 -449
-133 -241 -242 -442 -242 -447 0 -11 6450 -1 6462 10 3 3 117 207 253 454
l247 447 -250 453 -250 452 -213 1 c-118 0 -1087 -3 -2154 -6z m2603 -448
c133 -241 242 -444 242 -452 0 -8 -109 -210 -241 -451 l-241 -437 -582 -6
c-319 -3 -1770 -8 -3224 -10 l-2642 -4 29 52 c73 130 453 819 457 831 3 8
-103 209 -235 448 -133 239 -241 440 -241 446 0 8 456 12 1713 14 941 1 2390
3 3218 5 l1505 2 242 -438z"/>
</g>
</svg>
